<svg fill="#242424" height="200px" width="200px" version="1.1" id="Layer_1" xmlns="http://www.w3.org/2000/svg" xmlns:xlink="http://www.w3.org/1999/xlink" viewBox="0 0 508 508" xml:space="preserve" stroke="#242424"><g id="SVGRepo_bgCarrier" stroke-width="0"></g><g id="SVGRepo_tracerCarrier" stroke-linecap="round" stroke-linejoin="round"></g><g id="SVGRepo_iconCarrier"> <g> <g> <path d="M344.4,56.5H163.6c-7.8,0-14.1,6.3-14.1,14.1v152.8c0,7.7,6.3,14,14.1,14h180.8c7.8,0,14.1-6.3,14.1-14.1V70.6 C358.5,62.8,352.2,56.5,344.4,56.5z M330.3,209.2H177.7V84.7h152.6V209.2z"></path> </g> </g> <g> <g> <path d="M461.3,254.1C490,227.2,508,189.2,508,146.9C508,65.9,442.1,0,361.1,0H146.9C65.9,0,0,65.9,0,146.9 c0,42.3,18,80.3,46.7,107.1C17.2,281.7,0,320.5,0,361.1C0,442.1,66,508,147.2,508h213.6C442,508,508,442.1,508,361.1 C508,320.5,490.8,281.7,461.3,254.1z M28.2,146.9c0-65.5,53.3-118.7,118.7-118.7H361c65.5,0,118.7,53.3,118.7,118.7 c0,65.5-53.3,118.7-118.7,118.7H146.9C81.5,265.7,28.2,212.4,28.2,146.9z M360.8,479.8H147.2c-65.6,0-119-53.3-119-118.7 c0-54.1,41.5-89.4,41.6-89.3c22.4,13.9,48.8,22.1,77.1,22.1H361c28.3,0,54.6-8.2,77-22c0.2-0.1,41.7,25.3,41.7,89.2 C479.8,426.5,426.4,479.8,360.8,479.8z"></path> </g> </g> <g> <g> <path d="M171.9,364.6h-27.6V337c0-7.8-6.3-14.1-14.1-14.1c-7.8,0-14.1,6.3-14.1,14.1v27.6H88.5c-7.8,0-14.1,6.3-14.1,14.1 c0,7.8,6.3,14.1,14.1,14.1h27.6v27.6c0,7.8,6.3,14.1,14.1,14.1s14.1-6.3,14.1-14.1v-27.6h27.6c7.8,0,14.1-6.3,14.1-14.1 C186,371,179.7,364.6,171.9,364.6z"></path> </g> </g> <g> <g> <path d="M215.3,313.7h-19.9c-7.8,0-14.1,6.3-14.1,14.1s6.3,14.1,14.1,14.1h19.9c7.8,0,14.1-6.3,14.1-14.1 C229.4,320,223.1,313.7,215.3,313.7z"></path> </g> </g> <g> <g> <path d="M312.7,313.7h-19.9c-7.8,0-14.1,6.3-14.1,14.1s6.3,14.1,14.1,14.1h19.9c7.8,0,14.1-6.3,14.1-14.1 C326.8,320,320.5,313.7,312.7,313.7z"></path> </g> </g> <g> <g> <path d="M394.2,325.2h-13.1c-7.8,0-14.1,6.3-14.1,14.1s6.3,14.1,14.1,14.1h13.1c7.8,0,14.1-6.3,14.1-14.1 C408.3,331.5,402,325.2,394.2,325.2z"></path> </g> </g> <g> <g> <path d="M394.2,404.1h-13.1c-7.8,0-14.1,6.3-14.1,14.1c0,7.8,6.3,14.1,14.1,14.1h13.1c7.8,0,14.1-6.3,14.1-14.1 C408.3,410.4,402,404.1,394.2,404.1z"></path> </g> </g> <g> <g> <path d="M427.2,358.1c-7.8,0-14.1,6.3-14.1,14.1v13c0,7.8,6.3,14.1,14.1,14.1c7.8,0,14.1-6.3,14.1-14.1v-13 C441.3,364.4,435,358.1,427.2,358.1z"></path> </g> </g> <g> <g> <path d="M348.2,358.1c-7.8,0-14.1,6.3-14.1,14.1v13c0,7.8,6.3,14.1,14.1,14.1s14.1-6.3,14.1-14.1v-13 C362.3,364.4,356,358.1,348.2,358.1z"></path> </g> </g> </g></svg>